<svg width="581" height="202" viewBox="0 0 581 202" fill="none" xmlns="http://www.w3.org/2000/svg">
<rect width="581" height="202" fill="white"/>
<mask id="path-2-outside-1" maskUnits="userSpaceOnUse" x="75.744" y="61.656" width="429" height="79" fill="black">
<rect fill="white" x="75.744" y="61.656" width="429" height="79"/>
<path d="M102.32 71.432V129.224H89.936V71.432H102.32ZM102.32 63.656H89.936H77.744V134.024L89.936 137H102.32H114.512V66.632L102.32 63.656Z"/>
<path d="M161.162 63.656H152.81H148.97L148.874 115.496L142.634 126.056L136.586 115.592V63.656H132.746H124.394H120.362V71.432H124.394V112.904L137.642 135.848L146.09 137.96L161.066 111.176L161.162 71.432H165.098V63.656H161.162Z"/>
<path d="M199.345 71.432V81.608L211.537 78.632V63.656H199.345H186.961H183.121H174.769H170.737V71.432H174.769V88.328L170.737 87.368V95.144L174.769 96.104V129.224H170.737V137H174.769H183.121H186.961H199.345H211.537V114.536L199.345 117.512V129.224L186.961 129.32V100.712L183.121 98.12L185.041 98.6L186.961 99.08L199.345 102.056V94.28L186.961 91.304V73.064L183.121 71.432H186.961H199.345Z"/>
<path d="M223.05 137H231.402H235.242V100.712L231.498 98.12L234.666 98.984L235.242 99.08L247.626 102.056V137H251.466H259.818H263.754V129.224H259.818V105.032V97.256L241.29 92.744L247.626 91.208L259.818 88.232V66.632L247.626 63.656H235.242H223.05H219.018V71.432H223.05V88.328L219.018 87.368V95.144L223.05 96.104V129.224H219.018V137H223.05ZM235.242 71.432H247.626V83.432L235.242 86.504V71.432Z"/>
<path d="M298.251 63.656H269.643V71.432H273.675V88.328L269.643 87.368V95.144L273.675 96.104V129.224H269.643V137H298.251L310.443 134.024V97.256L301.707 95.144L310.443 93.032V66.632L298.251 63.656ZM298.251 71.432V94.28L285.867 91.304V73.064L282.027 71.432H298.251ZM298.251 129.224L285.867 129.32V100.712L282.027 98.12L298.251 102.056V129.224Z"/>
<path d="M342.508 71.432V129.224H330.123V71.432H342.508ZM342.508 63.656H330.123H317.931V134.024L330.123 137H342.508H354.699V66.632L342.508 63.656Z"/>
<path d="M376.677 71.432H389.061V98.12L376.677 95.144V71.432ZM389.061 63.656H376.677H364.486V129.224H360.453V137H364.486H372.837H376.677V104.552L372.837 101.96L376.677 102.92L389.061 105.896V137H392.901H401.254H405.19V129.224H401.254V108.872L405.19 109.832V102.056L401.254 101.096V66.632L389.061 63.656Z"/>
<path d="M415.238 137H423.59H427.43V100.712L423.686 98.12L426.854 98.984L427.43 99.08L439.814 102.056V137H443.654H452.006H455.942V129.224H452.006V105.032V97.256L433.478 92.744L439.814 91.208L452.006 88.232V66.632L439.814 63.656H427.43H415.238H411.206V71.432H415.238V88.328L411.206 87.368V95.144L415.238 96.104V129.224H411.206V137H415.238ZM427.43 71.432H439.814V83.432L427.43 86.504V71.432Z"/>
<path d="M490.343 63.656H461.735V71.432H465.767V88.328L461.735 87.368V95.144L465.767 96.104V129.224H461.735V137H490.343L502.535 134.024V66.632L490.343 63.656ZM490.343 71.432V129.224L477.959 129.32V100.712L474.119 98.12L475.463 98.504L482.759 100.232V92.456L477.959 91.304V73.064L474.119 71.432H490.343Z"/>
</mask>
<path d="M102.32 71.432V129.224H89.936V71.432H102.32ZM102.32 63.656H89.936H77.744V134.024L89.936 137H102.32H114.512V66.632L102.32 63.656Z" fill="#0A0030"/>
<path d="M161.162 63.656H152.81H148.97L148.874 115.496L142.634 126.056L136.586 115.592V63.656H132.746H124.394H120.362V71.432H124.394V112.904L137.642 135.848L146.09 137.96L161.066 111.176L161.162 71.432H165.098V63.656H161.162Z" fill="#0A0030"/>
<path d="M199.345 71.432V81.608L211.537 78.632V63.656H199.345H186.961H183.121H174.769H170.737V71.432H174.769V88.328L170.737 87.368V95.144L174.769 96.104V129.224H170.737V137H174.769H183.121H186.961H199.345H211.537V114.536L199.345 117.512V129.224L186.961 129.32V100.712L183.121 98.12L185.041 98.6L186.961 99.08L199.345 102.056V94.28L186.961 91.304V73.064L183.121 71.432H186.961H199.345Z" fill="#0A0030"/>
<path d="M223.05 137H231.402H235.242V100.712L231.498 98.12L234.666 98.984L235.242 99.08L247.626 102.056V137H251.466H259.818H263.754V129.224H259.818V105.032V97.256L241.29 92.744L247.626 91.208L259.818 88.232V66.632L247.626 63.656H235.242H223.05H219.018V71.432H223.05V88.328L219.018 87.368V95.144L223.05 96.104V129.224H219.018V137H223.05ZM235.242 71.432H247.626V83.432L235.242 86.504V71.432Z" fill="#0A0030"/>
<path d="M298.251 63.656H269.643V71.432H273.675V88.328L269.643 87.368V95.144L273.675 96.104V129.224H269.643V137H298.251L310.443 134.024V97.256L301.707 95.144L310.443 93.032V66.632L298.251 63.656ZM298.251 71.432V94.28L285.867 91.304V73.064L282.027 71.432H298.251ZM298.251 129.224L285.867 129.32V100.712L282.027 98.12L298.251 102.056V129.224Z" fill="#0A0030"/>
<path d="M342.508 71.432V129.224H330.123V71.432H342.508ZM342.508 63.656H330.123H317.931V134.024L330.123 137H342.508H354.699V66.632L342.508 63.656Z" fill="#0A0030"/>
<path d="M376.677 71.432H389.061V98.12L376.677 95.144V71.432ZM389.061 63.656H376.677H364.486V129.224H360.453V137H364.486H372.837H376.677V104.552L372.837 101.96L376.677 102.92L389.061 105.896V137H392.901H401.254H405.19V129.224H401.254V108.872L405.19 109.832V102.056L401.254 101.096V66.632L389.061 63.656Z" fill="#0A0030"/>
<path d="M415.238 137H423.59H427.43V100.712L423.686 98.12L426.854 98.984L427.43 99.08L439.814 102.056V137H443.654H452.006H455.942V129.224H452.006V105.032V97.256L433.478 92.744L439.814 91.208L452.006 88.232V66.632L439.814 63.656H427.43H415.238H411.206V71.432H415.238V88.328L411.206 87.368V95.144L415.238 96.104V129.224H411.206V137H415.238ZM427.43 71.432H439.814V83.432L427.43 86.504V71.432Z" fill="#0A0030"/>
<path d="M490.343 63.656H461.735V71.432H465.767V88.328L461.735 87.368V95.144L465.767 96.104V129.224H461.735V137H490.343L502.535 134.024V66.632L490.343 63.656ZM490.343 71.432V129.224L477.959 129.32V100.712L474.119 98.12L475.463 98.504L482.759 100.232V92.456L477.959 91.304V73.064L474.119 71.432H490.343Z" fill="#0A0030"/>
<path d="M102.32 71.432V129.224H89.936V71.432H102.32ZM102.32 63.656H89.936H77.744V134.024L89.936 137H102.32H114.512V66.632L102.32 63.656Z" stroke="#0A0030" stroke-width="4" mask="url(#path-2-outside-1)"/>
<path d="M161.162 63.656H152.81H148.97L148.874 115.496L142.634 126.056L136.586 115.592V63.656H132.746H124.394H120.362V71.432H124.394V112.904L137.642 135.848L146.09 137.96L161.066 111.176L161.162 71.432H165.098V63.656H161.162Z" stroke="#0A0030" stroke-width="4" mask="url(#path-2-outside-1)"/>
<path d="M199.345 71.432V81.608L211.537 78.632V63.656H199.345H186.961H183.121H174.769H170.737V71.432H174.769V88.328L170.737 87.368V95.144L174.769 96.104V129.224H170.737V137H174.769H183.121H186.961H199.345H211.537V114.536L199.345 117.512V129.224L186.961 129.32V100.712L183.121 98.12L185.041 98.6L186.961 99.08L199.345 102.056V94.28L186.961 91.304V73.064L183.121 71.432H186.961H199.345Z" stroke="#0A0030" stroke-width="4" mask="url(#path-2-outside-1)"/>
<path d="M223.05 137H231.402H235.242V100.712L231.498 98.12L234.666 98.984L235.242 99.08L247.626 102.056V137H251.466H259.818H263.754V129.224H259.818V105.032V97.256L241.29 92.744L247.626 91.208L259.818 88.232V66.632L247.626 63.656H235.242H223.05H219.018V71.432H223.05V88.328L219.018 87.368V95.144L223.05 96.104V129.224H219.018V137H223.05ZM235.242 71.432H247.626V83.432L235.242 86.504V71.432Z" stroke="#0A0030" stroke-width="4" mask="url(#path-2-outside-1)"/>
<path d="M298.251 63.656H269.643V71.432H273.675V88.328L269.643 87.368V95.144L273.675 96.104V129.224H269.643V137H298.251L310.443 134.024V97.256L301.707 95.144L310.443 93.032V66.632L298.251 63.656ZM298.251 71.432V94.28L285.867 91.304V73.064L282.027 71.432H298.251ZM298.251 129.224L285.867 129.32V100.712L282.027 98.12L298.251 102.056V129.224Z" stroke="#0A0030" stroke-width="4" mask="url(#path-2-outside-1)"/>
<path d="M342.508 71.432V129.224H330.123V71.432H342.508ZM342.508 63.656H330.123H317.931V134.024L330.123 137H342.508H354.699V66.632L342.508 63.656Z" stroke="#0A0030" stroke-width="4" mask="url(#path-2-outside-1)"/>
<path d="M376.677 71.432H389.061V98.12L376.677 95.144V71.432ZM389.061 63.656H376.677H364.486V129.224H360.453V137H364.486H372.837H376.677V104.552L372.837 101.96L376.677 102.92L389.061 105.896V137H392.901H401.254H405.19V129.224H401.254V108.872L405.19 109.832V102.056L401.254 101.096V66.632L389.061 63.656Z" stroke="#0A0030" stroke-width="4" mask="url(#path-2-outside-1)"/>
<path d="M415.238 137H423.59H427.43V100.712L423.686 98.12L426.854 98.984L427.43 99.08L439.814 102.056V137H443.654H452.006H455.942V129.224H452.006V105.032V97.256L433.478 92.744L439.814 91.208L452.006 88.232V66.632L439.814 63.656H427.43H415.238H411.206V71.432H415.238V88.328L411.206 87.368V95.144L415.238 96.104V129.224H411.206V137H415.238ZM427.43 71.432H439.814V83.432L427.43 86.504V71.432Z" stroke="#0A0030" stroke-width="4" mask="url(#path-2-outside-1)"/>
<path d="M490.343 63.656H461.735V71.432H465.767V88.328L461.735 87.368V95.144L465.767 96.104V129.224H461.735V137H490.343L502.535 134.024V66.632L490.343 63.656ZM490.343 71.432V129.224L477.959 129.32V100.712L474.119 98.12L475.463 98.504L482.759 100.232V92.456L477.959 91.304V73.064L474.119 71.432H490.343Z" stroke="#0A0030" stroke-width="4" mask="url(#path-2-outside-1)"/>
<path d="M49 140H63H68.5V128.5H65V74.5H69.5V63H62.5L49 66.5V140Z" stroke="black"/>
<path d="M531.5 63H517.5H512V74.5H515.5V128.5H511V140H518L531.5 136.5V63Z" stroke="black"/>
</svg>
